<svg xmlns="http://www.w3.org/2000/svg" version="1.1" xmlns:xlink="http://www.w3.org/1999/xlink" width="1000" height="1000"><g clip-path="url(#SvgjsClipPath1223)"><rect width="1000" height="1000" fill="#ffffff"></rect><g transform="matrix(5,0,0,5,0,0)"><svg xmlns="http://www.w3.org/2000/svg" version="1.1" xmlns:xlink="http://www.w3.org/1999/xlink" width="200" height="200"><svg xmlns="http://www.w3.org/2000/svg" version="1.1" xmlns:xlink="http://www.w3.org/1999/xlink" viewBox="0 0 200 200"><rect width="200" height="200" fill="url('#gradient')"></rect><defs><linearGradient id="gradient" gradientTransform="rotate(45 0.5 0.5)"><stop offset="0%" stop-color="#71e6a8"></stop><stop offset="100%" stop-color="#4574d5"></stop></linearGradient><clipPath id="SvgjsClipPath1223"><rect width="1000" height="1000" x="0" y="0" rx="300" ry="300"></rect></clipPath></defs><g><g fill="#000000" transform="matrix(4.749685534591195,0,0,4.749685534591195,35.90189904881724,133.76963965158043)" stroke="#1d7d80" stroke-width="0"><path d="M6.85 0L1.07 0L1.07-14.22L6.18-14.22Q8.93-14.22 10.36-13.21Q11.79-12.21 11.79-10.29L11.79-10.29Q11.79-9.19 11.28-8.41Q10.77-7.63 9.79-7.26L9.79-7.26Q10.90-6.96 11.49-6.16Q12.09-5.36 12.09-4.21L12.09-4.21Q12.09-2.12 10.77-1.07Q9.44-0.02 6.85 0L6.85 0ZM6.90-6.04L4.50-6.04L4.50-2.64L6.75-2.64Q7.68-2.64 8.17-3.06Q8.67-3.49 8.67-4.26L8.67-4.26Q8.67-6.04 6.90-6.04L6.90-6.04ZM4.50-11.57L4.50-8.29L6.29-8.29Q7.41-8.30 7.89-8.70Q8.37-9.10 8.37-9.88L8.37-9.88Q8.37-10.78 7.85-11.18Q7.33-11.57 6.18-11.57L6.18-11.57L4.50-11.57ZM16.44-14.22L19.26-3.87L22.09-14.22L25.92-14.22L21.13 0L17.38 0L12.64-14.22L16.44-14.22Z"></path></g></g></svg></svg></g></g></svg>